<svg width="476" height="256" viewBox="0 0 476 256" fill="none" xmlns="http://www.w3.org/2000/svg">
<g clip-path="url(#clip0_632_243)">
<rect x="220" width="256" height="256" rx="19.2" fill="#7C3AED"/>
<g filter="url(#filter0_f_632_243)">
<ellipse cx="348" cy="124" rx="128" ry="124" fill="black"/>
</g>
</g>
<rect y="24" width="452" height="208" rx="9.59999" fill="#09090A"/>
<g clip-path="url(#clip1_632_243)">
<rect x="4.64695" y="37.5578" width="21.1956" height="21.1955" rx="3.90444" fill="#18181B" stroke="#27272A" stroke-width="1.11555"/>
<rect x="31.4202" y="37.5578" width="21.1956" height="21.1955" rx="3.90444" fill="#6D28D9" stroke="#8B5CF6" stroke-width="1.11555"/>
<rect x="58.1936" y="37.5578" width="21.1956" height="21.1955" rx="3.90444" fill="#18181B" stroke="#27272A" stroke-width="1.11555"/>
<rect x="84.967" y="37.5578" width="21.1956" height="21.1955" rx="3.90444" fill="#6D28D9" stroke="#8B5CF6" stroke-width="1.11555"/>
<rect x="111.74" y="37.5578" width="21.1956" height="21.1955" rx="3.90444" fill="#7C3AED" stroke="#8B5CF6" stroke-width="1.11555"/>
<rect x="138.514" y="37.5578" width="21.1956" height="21.1955" rx="3.90444" fill="#7C3AED" stroke="#8B5CF6" stroke-width="1.11555"/>
<rect x="165.287" y="37.5578" width="21.1956" height="21.1955" rx="3.90444" fill="#6D28D9" stroke="#8B5CF6" stroke-width="1.11555"/>
<rect x="192.06" y="37.5578" width="21.1956" height="21.1955" rx="3.90444" fill="#7C3AED" stroke="#8B5CF6" stroke-width="1.11555"/>
<rect x="218.833" y="37.5578" width="21.1956" height="21.1955" rx="3.90444" fill="#8B5CF6" stroke="#A78BFA" stroke-width="1.11555"/>
<rect x="245.607" y="37.5578" width="21.1956" height="21.1955" rx="3.90444" fill="#8B5CF6" stroke="#A78BFA" stroke-width="1.11555"/>
<rect x="272.38" y="37.5578" width="21.1956" height="21.1955" rx="3.90444" fill="#7C3AED" stroke="#8B5CF6" stroke-width="1.11555"/>
<rect x="299.154" y="37.5578" width="21.1956" height="21.1955" rx="3.90444" fill="#8B5CF6" stroke="#A78BFA" stroke-width="1.11555"/>
<rect x="325.927" y="37.5578" width="21.1956" height="21.1955" rx="3.90444" fill="#7C3AED" stroke="#8B5CF6" stroke-width="1.11555"/>
<rect x="352.7" y="37.5578" width="21.1956" height="21.1955" rx="3.90444" fill="#7C3AED" stroke="#8B5CF6" stroke-width="1.11555"/>
<rect x="379.473" y="37.5578" width="21.1956" height="21.1955" rx="3.90444" fill="#8B5CF6" stroke="#A78BFA" stroke-width="1.11555"/>
<rect x="406.247" y="37.5578" width="21.1956" height="21.1955" rx="3.90444" fill="#8B5CF6" stroke="#A78BFA" stroke-width="1.11555"/>
<rect x="4.64695" y="64.331" width="21.1956" height="21.1955" rx="3.90444" fill="#5B21B6" stroke="#7C3AED" stroke-width="1.11555"/>
<rect x="31.4202" y="64.3312" width="21.1956" height="21.1955" rx="3.90444" fill="#18181B" stroke="#27272A" stroke-width="1.11555"/>
<rect x="58.1936" y="64.331" width="21.1956" height="21.1955" rx="3.90444" fill="#5B21B6" stroke="#7C3AED" stroke-width="1.11555"/>
<rect x="84.967" y="64.331" width="21.1956" height="21.1955" rx="3.90444" fill="#18181B" stroke="#27272A" stroke-width="1.11555"/>
<rect x="111.74" y="64.331" width="21.1956" height="21.1955" rx="3.90444" fill="#7C3AED" stroke="#8B5CF6" stroke-width="1.11555"/>
<rect x="138.513" y="64.3312" width="21.1956" height="21.1955" rx="3.90444" fill="#7C3AED" stroke="#8B5CF6" stroke-width="1.11555"/>
<rect x="165.287" y="64.3312" width="21.1956" height="21.1955" rx="3.90444" fill="#18181B" stroke="#27272A" stroke-width="1.11555"/>
<rect x="192.06" y="64.331" width="21.1956" height="21.1955" rx="3.90444" fill="#7C3AED" stroke="#8B5CF6" stroke-width="1.11555"/>
<rect x="218.833" y="64.3312" width="21.1956" height="21.1955" rx="3.90444" fill="#8B5CF6" stroke="#A78BFA" stroke-width="1.11555"/>
<rect x="245.607" y="64.3312" width="21.1956" height="21.1955" rx="3.90444" fill="#8B5CF6" stroke="#A78BFA" stroke-width="1.11555"/>
<rect x="272.38" y="64.3312" width="21.1956" height="21.1955" rx="3.90444" fill="#7C3AED" stroke="#8B5CF6" stroke-width="1.11555"/>
<rect x="299.153" y="64.3312" width="21.1956" height="21.1955" rx="3.90444" fill="#8B5CF6" stroke="#A78BFA" stroke-width="1.11555"/>
<rect x="325.927" y="64.331" width="21.1956" height="21.1955" rx="3.90444" fill="#18181B" stroke="#27272A" stroke-width="1.11555"/>
<rect x="352.7" y="64.3311" width="21.1956" height="21.1955" rx="3.90444" fill="#18181B" stroke="#27272A" stroke-width="1.11555"/>
<rect x="379.473" y="64.3312" width="21.1956" height="21.1955" rx="3.90444" fill="#8B5CF6" stroke="#A78BFA" stroke-width="1.11555"/>
<rect x="406.247" y="64.3312" width="21.1956" height="21.1955" rx="3.90444" fill="#8B5CF6" stroke="#A78BFA" stroke-width="1.11555"/>
<rect x="4.64695" y="91.1044" width="21.1956" height="21.1955" rx="3.90444" fill="#5B21B6" stroke="#7C3AED" stroke-width="1.11555"/>
<rect x="31.4202" y="91.1044" width="21.1956" height="21.1955" rx="3.90444" fill="#6D28D9" stroke="#8B5CF6" stroke-width="1.11555"/>
<rect x="58.1936" y="91.1044" width="21.1956" height="21.1955" rx="3.90444" fill="#5B21B6" stroke="#7C3AED" stroke-width="1.11555"/>
<rect x="84.967" y="91.1044" width="21.1956" height="21.1955" rx="3.90444" fill="#6D28D9" stroke="#8B5CF6" stroke-width="1.11555"/>
<rect x="111.74" y="91.1044" width="21.1956" height="21.1955" rx="3.90444" fill="#7C3AED" stroke="#8B5CF6" stroke-width="1.11555"/>
<rect x="138.514" y="91.1044" width="21.1956" height="21.1955" rx="3.90444" fill="#7C3AED" stroke="#8B5CF6" stroke-width="1.11555"/>
<rect x="165.287" y="91.1044" width="21.1956" height="21.1955" rx="3.90444" fill="#6D28D9" stroke="#8B5CF6" stroke-width="1.11555"/>
<rect x="192.06" y="91.1044" width="21.1956" height="21.1955" rx="3.90444" fill="#7C3AED" stroke="#8B5CF6" stroke-width="1.11555"/>
<rect x="218.833" y="91.1044" width="21.1956" height="21.1955" rx="3.90444" fill="#8B5CF6" stroke="#A78BFA" stroke-width="1.11555"/>
<rect x="245.607" y="91.1044" width="21.1956" height="21.1955" rx="3.90444" fill="#8B5CF6" stroke="#A78BFA" stroke-width="1.11555"/>
<rect x="272.38" y="91.1044" width="21.1956" height="21.1955" rx="3.90444" fill="#7C3AED" stroke="#8B5CF6" stroke-width="1.11555"/>
<rect x="299.154" y="91.1044" width="21.1956" height="21.1955" rx="3.90444" fill="#8B5CF6" stroke="#A78BFA" stroke-width="1.11555"/>
<rect x="325.927" y="91.1044" width="21.1956" height="21.1955" rx="3.90444" fill="#7C3AED" stroke="#8B5CF6" stroke-width="1.11555"/>
<rect x="352.7" y="91.1044" width="21.1956" height="21.1955" rx="3.90444" fill="#7C3AED" stroke="#8B5CF6" stroke-width="1.11555"/>
<rect x="379.473" y="91.1044" width="21.1956" height="21.1955" rx="3.90444" fill="#8B5CF6" stroke="#A78BFA" stroke-width="1.11555"/>
<rect x="406.247" y="91.1044" width="21.1956" height="21.1955" rx="3.90444" fill="#8B5CF6" stroke="#A78BFA" stroke-width="1.11555"/>
<rect x="4.64695" y="117.878" width="21.1956" height="21.1955" rx="3.90444" fill="#18181B" stroke="#27272A" stroke-width="1.11555"/>
<rect x="31.4202" y="117.878" width="21.1956" height="21.1955" rx="3.90444" fill="#6D28D9" stroke="#8B5CF6" stroke-width="1.11555"/>
<rect x="58.1936" y="117.878" width="21.1956" height="21.1955" rx="3.90444" fill="#18181B" stroke="#27272A" stroke-width="1.11555"/>
<rect x="84.967" y="117.878" width="21.1956" height="21.1955" rx="3.90444" fill="#6D28D9" stroke="#8B5CF6" stroke-width="1.11555"/>
<rect x="111.74" y="117.878" width="21.1956" height="21.1955" rx="3.90444" fill="#7C3AED" stroke="#8B5CF6" stroke-width="1.11555"/>
<rect x="138.513" y="117.878" width="21.1956" height="21.1955" rx="3.90444" fill="#7C3AED" stroke="#8B5CF6" stroke-width="1.11555"/>
<rect x="165.287" y="117.878" width="21.1956" height="21.1955" rx="3.90444" fill="#6D28D9" stroke="#8B5CF6" stroke-width="1.11555"/>
<rect x="192.06" y="117.878" width="21.1956" height="21.1955" rx="3.90444" fill="#7C3AED" stroke="#8B5CF6" stroke-width="1.11555"/>
<rect x="218.833" y="117.878" width="21.1956" height="21.1955" rx="3.90444" fill="#18181B" stroke="#27272A" stroke-width="1.11555"/>
<rect x="245.607" y="117.878" width="21.1956" height="21.1955" rx="3.90444" fill="#18181B" stroke="#27272A" stroke-width="1.11555"/>
<rect x="272.38" y="117.878" width="21.1956" height="21.1955" rx="3.90444" fill="#7C3AED" stroke="#8B5CF6" stroke-width="1.11555"/>
<rect x="299.153" y="117.878" width="21.1956" height="21.1955" rx="3.90444" fill="#18181B" stroke="#27272A" stroke-width="1.11555"/>
<rect x="325.927" y="117.878" width="21.1956" height="21.1955" rx="3.90444" fill="#7C3AED" stroke="#8B5CF6" stroke-width="1.11555"/>
<rect x="352.7" y="117.878" width="21.1956" height="21.1955" rx="3.90444" fill="#7C3AED" stroke="#8B5CF6" stroke-width="1.11555"/>
<rect x="379.473" y="117.878" width="21.1956" height="21.1955" rx="3.90444" fill="#8B5CF6" stroke="#A78BFA" stroke-width="1.11555"/>
<rect x="406.247" y="117.878" width="21.1956" height="21.1955" rx="3.90444" fill="#8B5CF6" stroke="#A78BFA" stroke-width="1.11555"/>
<rect x="4.64695" y="144.651" width="21.1956" height="21.1955" rx="3.90444" fill="#5B21B6" stroke="#7C3AED" stroke-width="1.11555"/>
<rect x="31.4202" y="144.651" width="21.1956" height="21.1955" rx="3.90444" fill="#6D28D9" stroke="#8B5CF6" stroke-width="1.11555"/>
<rect x="58.1936" y="144.651" width="21.1956" height="21.1955" rx="3.90444" fill="#5B21B6" stroke="#7C3AED" stroke-width="1.11555"/>
<rect x="84.967" y="144.651" width="21.1956" height="21.1955" rx="3.90444" fill="#6D28D9" stroke="#8B5CF6" stroke-width="1.11555"/>
<rect x="111.74" y="144.651" width="21.1956" height="21.1955" rx="3.90444" fill="#7C3AED" stroke="#8B5CF6" stroke-width="1.11555"/>
<rect x="138.513" y="144.651" width="21.1956" height="21.1955" rx="3.90444" fill="#7C3AED" stroke="#8B5CF6" stroke-width="1.11555"/>
<rect x="165.287" y="144.651" width="21.1956" height="21.1955" rx="3.90444" fill="#6D28D9" stroke="#8B5CF6" stroke-width="1.11555"/>
<rect x="192.06" y="144.651" width="21.1956" height="21.1955" rx="3.90444" fill="#7C3AED" stroke="#8B5CF6" stroke-width="1.11555"/>
<rect x="218.833" y="144.651" width="21.1956" height="21.1955" rx="3.90444" fill="#8B5CF6" stroke="#A78BFA" stroke-width="1.11555"/>
<rect x="245.607" y="144.651" width="21.1956" height="21.1955" rx="3.90444" fill="#8B5CF6" stroke="#A78BFA" stroke-width="1.11555"/>
<rect x="272.38" y="144.651" width="21.1956" height="21.1955" rx="3.90444" fill="#7C3AED" stroke="#8B5CF6" stroke-width="1.11555"/>
<rect x="299.153" y="144.651" width="21.1956" height="21.1955" rx="3.90444" fill="#8B5CF6" stroke="#A78BFA" stroke-width="1.11555"/>
<rect x="325.927" y="144.651" width="21.1956" height="21.1955" rx="3.90444" fill="#7C3AED" stroke="#8B5CF6" stroke-width="1.11555"/>
<rect x="352.7" y="144.651" width="21.1956" height="21.1955" rx="3.90444" fill="#7C3AED" stroke="#8B5CF6" stroke-width="1.11555"/>
<rect x="379.473" y="144.651" width="21.1956" height="21.1955" rx="3.90444" fill="#8B5CF6" stroke="#A78BFA" stroke-width="1.11555"/>
<rect x="406.247" y="144.651" width="21.1956" height="21.1955" rx="3.90444" fill="#8B5CF6" stroke="#A78BFA" stroke-width="1.11555"/>
<rect x="4.64683" y="171.424" width="21.1956" height="21.1955" rx="3.90444" fill="#5B21B6" stroke="#7C3AED" stroke-width="1.11555"/>
<rect x="31.4202" y="171.424" width="21.1956" height="21.1955" rx="3.90444" fill="#6D28D9" stroke="#8B5CF6" stroke-width="1.11555"/>
<rect x="58.1935" y="171.424" width="21.1956" height="21.1955" rx="3.90444" fill="#5B21B6" stroke="#7C3AED" stroke-width="1.11555"/>
<rect x="84.9668" y="171.424" width="21.1956" height="21.1955" rx="3.90444" fill="#6D28D9" stroke="#8B5CF6" stroke-width="1.11555"/>
<rect x="111.74" y="171.424" width="21.1956" height="21.1955" rx="3.90444" fill="#18181B" stroke="#27272A" stroke-width="1.11555"/>
<rect x="138.513" y="171.424" width="21.1956" height="21.1955" rx="3.90444" fill="#18181B" stroke="#27272A" stroke-width="1.11555"/>
<rect x="165.287" y="171.424" width="21.1956" height="21.1955" rx="3.90444" fill="#6D28D9" stroke="#8B5CF6" stroke-width="1.11555"/>
<rect x="192.06" y="171.424" width="21.1956" height="21.1955" rx="3.90444" fill="#18181B" stroke="#27272A" stroke-width="1.11555"/>
<rect x="218.833" y="171.424" width="21.1956" height="21.1955" rx="3.90444" fill="#8B5CF6" stroke="#A78BFA" stroke-width="1.11555"/>
<rect x="245.607" y="171.424" width="21.1956" height="21.1955" rx="3.90444" fill="#8B5CF6" stroke="#A78BFA" stroke-width="1.11555"/>
<rect x="272.38" y="171.424" width="21.1956" height="21.1955" rx="3.90444" fill="#18181B" stroke="#27272A" stroke-width="1.11555"/>
<rect x="299.153" y="171.424" width="21.1956" height="21.1955" rx="3.90444" fill="#8B5CF6" stroke="#A78BFA" stroke-width="1.11555"/>
<rect x="325.927" y="171.424" width="21.1956" height="21.1955" rx="3.90444" fill="#18181B" stroke="#27272A" stroke-width="1.11555"/>
<rect x="352.7" y="171.424" width="21.1956" height="21.1955" rx="3.90444" fill="#18181B" stroke="#27272A" stroke-width="1.11555"/>
<rect x="379.473" y="171.424" width="21.1956" height="21.1955" rx="3.90444" fill="#8B5CF6" stroke="#A78BFA" stroke-width="1.11555"/>
<rect x="406.804" y="171.982" width="20.08" height="20.08" rx="3.34666" fill="#18181B" stroke="white" stroke-width="2.23111"/>
<rect x="4.64689" y="198.198" width="21.1956" height="21.1955" rx="3.90444" fill="#18181B" stroke="#27272A" stroke-width="1.11555"/>
<rect x="31.4202" y="198.198" width="21.1956" height="21.1955" rx="3.90444" fill="#6D28D9" stroke="#8B5CF6" stroke-width="1.11555"/>
<rect x="58.1935" y="198.198" width="21.1956" height="21.1955" rx="3.90444" fill="#18181B" stroke="#27272A" stroke-width="1.11555"/>
<rect x="84.9668" y="198.198" width="21.1956" height="21.1955" rx="3.90444" fill="#6D28D9" stroke="#8B5CF6" stroke-width="1.11555"/>
<rect x="111.74" y="198.198" width="21.1956" height="21.1955" rx="3.90444" fill="#7C3AED" stroke="#8B5CF6" stroke-width="1.11555"/>
<rect x="138.513" y="198.198" width="21.1956" height="21.1955" rx="3.90444" fill="#7C3AED" stroke="#8B5CF6" stroke-width="1.11555"/>
<rect x="165.287" y="198.198" width="21.1956" height="21.1955" rx="3.90444" fill="#6D28D9" stroke="#8B5CF6" stroke-width="1.11555"/>
<rect x="192.06" y="198.198" width="21.1956" height="21.1955" rx="3.90444" fill="#7C3AED" stroke="#8B5CF6" stroke-width="1.11555"/>
<rect x="218.833" y="198.198" width="21.1956" height="21.1955" rx="3.90444" fill="#18181B" stroke="#27272A" stroke-width="1.11555"/>
<rect x="245.607" y="198.198" width="21.1956" height="21.1955" rx="3.90444" fill="#18181B" stroke="#27272A" stroke-width="1.11555"/>
<rect x="272.38" y="198.198" width="21.1956" height="21.1955" rx="3.90444" fill="#7C3AED" stroke="#8B5CF6" stroke-width="1.11555"/>
<rect x="299.153" y="198.198" width="21.1956" height="21.1955" rx="3.90444" fill="#18181B" stroke="#27272A" stroke-width="1.11555"/>
<rect x="325.927" y="198.198" width="21.1956" height="21.1955" rx="3.90444" fill="#7C3AED" stroke="#8B5CF6" stroke-width="1.11555"/>
<rect x="352.7" y="198.198" width="21.1956" height="21.1955" rx="3.90444" fill="#7C3AED" stroke="#8B5CF6" stroke-width="1.11555"/>
<rect x="379.473" y="198.198" width="21.1956" height="21.1955" rx="3.90444" fill="#8B5CF6" stroke="#A78BFA" stroke-width="1.11555"/>
</g>
<defs>
<filter id="filter0_f_632_243" x="-282" y="-502" width="1260" height="1252" filterUnits="userSpaceOnUse" color-interpolation-filters="sRGB">
<feFlood flood-opacity="0" result="BackgroundImageFix"/>
<feBlend mode="normal" in="SourceGraphic" in2="BackgroundImageFix" result="shape"/>
<feGaussianBlur stdDeviation="251" result="effect1_foregroundBlur_632_243"/>
</filter>
<clipPath id="clip0_632_243">
<rect x="220" width="256" height="256" rx="19.2" fill="white"/>
</clipPath>
<clipPath id="clip1_632_243">
<rect width="428" height="182" fill="white" transform="translate(0 37)"/>
</clipPath>
</defs>
</svg>
